<?xml version="1.0" encoding="utf-8"?>
<!-- Generator: Adobe Illustrator 15.0.0, SVG Export Plug-In . SVG Version: 6.00 Build 0)  -->
<!DOCTYPE svg PUBLIC "-//W3C//DTD SVG 1.1//EN" "http://www.w3.org/Graphics/SVG/1.1/DTD/svg11.dtd">
<svg version="1.1" xmlns="http://www.w3.org/2000/svg" xmlns:xlink="http://www.w3.org/1999/xlink" x="0px" y="0px"
	 width="701.103px" height="404px" viewBox="0 0 701.103 404" enable-background="new 0 0 701.103 404" xml:space="preserve">
<g id="Layer_3">
</g>
<g id="Layer_1">
	<path fill="#F11385" d="M96.08,305.022c-5.299,24.226-13.481,9.137-27.395,3.953c-12.825-4.776-25.53-4.58-25.53-4.58
		c5.297-24.227,20.467-39.272,35.427-40.682C93.544,262.301,101.377,280.797,96.08,305.022z"/>
	<path fill="#64C1C7" d="M628.73,375.952c0,0,15.738-46.516,6.113-73.09c-9.621-26.574,43.297,0.031,58.354-1.19
		c4.342-0.352-19.418,40.519-5.143,73.072C694.582,389.626,628.73,375.952,628.73,375.952z"/>
	<path fill="#64C1C7" d="M729.406,314.59c0.734,22.073-20.646,80.875-24.324,83.112c-3.678,2.236-10.508,0.338-14.674-2.101
		c-4.166-2.439,22.598-83.361,23.33-86.94C714.468,305.081,729.105,305.541,729.406,314.59z"/>
	<path fill="#64C1C7" d="M524.518,365.965c-0.712,15.701,12.671,45.97,24.411,54.072s65.498-31.7,69.244-45.779
		s-20.988-59.915-27.241-60.338S525.191,351.076,524.518,365.965z"/>
	<path fill="#F01485" d="M566.201,336.759c-2.541,20.243,13.893,77.245,17.364,79.791c3.474,2.546,10.419,1.698,14.761,0
		c4.342-1.697-15.629-79.791-16.063-83.186C581.829,329.97,567.242,328.462,566.201,336.759z"/>
	<path fill="#F01485" d="M612.327,318.363c-10.2,10.297-17.877,62.169-15.777,67.144c2.102,4.974,8.632,11.178,13.174,14.318
		c4.539,3.142,17.325-65.459,18.267-68.019C628.936,329.244,616.508,314.143,612.327,318.363z"/>
	<path fill="#F01485" d="M676.203,349.75c0,24.146-12.027,11.896-27.785,10.384c-14.521-1.394-27.783,1.878-27.783,1.878
		c0-24.145,12.439-42.023,27.783-46.989C663.763,310.058,676.203,325.606,676.203,349.75z"/>
	<path fill="#F01485" d="M507.451,338.158c0,0,14.489,50.364,6.155,79.895c-8.334,29.529,44.091-16.535,52.089-1.07
		c7.998,15.465-17.717-43.637-5.287-79.911C566.091,320.486,507.451,338.158,507.451,338.158z"/>
	<path fill="#68C6DD" d="M579.716,435.296c18.516-9.018,60.66-61.392,61.381-66.865c0.723-5.473-2.953-12.919-6.258-16.885
		c-3.303-3.966-62.117,64.879-64.859,67.375C567.238,421.419,572.125,438.993,579.716,435.296z"/>
	<path fill="#64C1C7" d="M505.333,355.69c0.508,21.468,23.8,76.389,27.38,78.201c3.581,1.811,9.899-0.692,13.684-3.461
		c3.784-2.77-25.769-78.608-26.651-82.008C518.863,345.023,505.126,346.889,505.333,355.69z"/>
	<path fill="#F11385" d="M657.535,356.332c7.387,6.2,11.721,43.974,10.002,48.021c-1.717,4.047-6.801,9.678-10.301,12.714
		c-3.502,3.034-11.213-46.525-11.852-48.307C644.744,366.979,654.507,353.791,657.535,356.332z"/>
	<path fill="#F11385" d="M594.23,428.748c1.311,23.404,11.953,10.363,26.688,7.368c13.581-2.76,26.228-0.876,26.228-0.876
		c-1.309-23.404-13.977-39.527-28.674-42.85C603.774,389.067,592.921,405.345,594.23,428.748z"/>
	<path fill="#F01485" d="M727.673,356.347c0,0-14.57,48.519-7.594,77.424c6.977,28.904-40.264-17.255-48.01-2.452
		c-7.748,14.802,17.385-41.899,6.795-77.465C674.021,337.593,727.673,356.347,727.673,356.347z"/>
	<path fill="#64C1C7" d="M697.396,382.765c1.521,15.15-9.42,45.79-20.02,54.782c-10.6,8.994-63.307-24.37-67.594-37.653
		c-4.285-13.284,16.486-60.113,22.342-61.131C637.982,337.746,695.957,368.399,697.396,382.765z"/>
	<path fill="#64C1C7" d="M762.765,298.573c0.689,19.179-12.26,56.153-23.619,66.05c-11.36,9.897-63.374-38.722-66.999-55.92
		c-3.625-17.199,20.308-73.187,26.358-73.704C704.555,234.481,762.114,280.387,762.765,298.573z"/>
	<path fill="#F01485" d="M722.435,262.898c2.458,24.727-13.442,94.355-16.801,97.465c-3.361,3.11-10.081,2.074-14.282,0
		c-4.201-2.073,15.122-97.465,15.542-101.612C707.314,254.605,721.427,252.763,722.435,262.898z"/>
	<path fill="#F01485" d="M676.004,246.293c9.87,12.578,17.297,75.94,15.265,82.017c-2.034,6.075-8.352,13.654-12.747,17.489
		c-4.392,3.838-16.763-79.959-17.674-83.085C659.935,259.583,671.958,241.138,676.004,246.293z"/>
	<path fill="#68C6DD" d="M715.411,398.162c-17.915-11.015-58.692-74.991-59.39-81.677c-0.699-6.686,2.857-15.781,6.055-20.625
		c3.196-4.844,60.102,79.25,62.755,82.299C727.485,381.211,722.755,402.678,715.411,398.162z"/>
	<path fill="#64C1C7" d="M114.472,298.946c0,0-13.904,50.428-5.401,79.237c8.5,28.809-38.248-0.034-51.549,1.29
		c-3.835,0.381,17.154-43.926,4.543-79.217C56.3,284.122,114.472,298.946,114.472,298.946z"/>
	<path fill="#64C1C7" d="M19.537,325.469c-0.649-23.93,18.238-87.677,21.487-90.103c3.249-2.424,9.282-0.366,12.963,2.278
		c3.68,2.645-19.963,90.372-20.61,94.253C32.732,335.777,19.802,335.279,19.537,325.469z"/>
	<path fill="#64C1C7" d="M185.847,414.115c0.629-17.021-11.193-49.836-21.564-58.62c-10.372-8.784-57.86,34.366-61.169,49.629
		c-3.309,15.264,18.541,64.954,24.064,65.413C132.702,470.998,185.252,430.256,185.847,414.115z"/>
	<path fill="#F01485" d="M143.498,439.506c2.245-21.945-12.273-83.742-15.339-86.501c-3.068-2.76-9.204-1.841-13.039,0
		c-3.836,1.841,13.806,86.501,14.188,90.182C129.693,446.867,142.579,448.501,143.498,439.506z"/>
	<path fill="#F01485" d="M108.278,465.721c9.011-11.163,15.792-67.397,13.937-72.792c-1.856-5.392-7.625-12.118-11.638-15.522
		c-4.01-3.405-15.305,70.965-16.137,73.739C93.605,453.925,104.584,470.295,108.278,465.721z"/>
	<path fill="#F01485" d="M207.395,411.364c0,17.078,10.625,8.414,24.544,7.345c12.829-0.986,24.543,1.328,24.543,1.328
		c0-17.077-10.988-29.723-24.543-33.234C218.384,383.291,207.395,394.288,207.395,411.364z"/>
	<path fill="#F01485" d="M200.924,444.261c0,0-12.8-54.6-5.438-86.614c7.362-32.012-38.949,17.926-46.015,1.16
		c-7.065-16.765,15.651,47.307,4.67,86.632C149.122,463.419,200.924,444.261,200.924,444.261z"/>
	<path fill="#68C6DD" d="M137.085,338.953c-16.356,9.775-53.586,66.555-54.223,72.489c-0.638,5.933,2.609,14.005,5.528,18.305
		c2.917,4.3,54.873-70.335,57.295-73.042C148.109,353.998,143.791,334.945,137.085,338.953z"/>
	<path fill="#64C1C7" d="M221.081,450.354c-0.448-23.274-21.024-82.814-24.187-84.778c-3.164-1.963-8.745,0.75-12.088,3.752
		c-3.343,3.003,22.765,85.22,23.544,88.905C209.129,461.918,221.264,459.896,221.081,450.354z"/>
	<path fill="#F11385" d="M68.342,424.559c-6.525-6.722-10.354-47.673-8.835-52.06c1.517-4.387,6.008-10.492,9.1-13.783
		c3.093-3.29,9.905,50.438,10.469,52.37C79.641,413.017,71.016,427.313,68.342,424.559z"/>
	<path fill="#F01485" d="M6.383,424.542c0,0,12.871-52.6,6.708-83.935c-6.164-31.334,35.568,18.707,42.411,2.658
		c6.844-16.047-15.357,45.423-6.002,83.979C53.778,444.874,6.383,424.542,6.383,424.542z"/>
	<path fill="#64C1C7" d="M-9.933,342.833c-0.608-20.793,10.831-60.876,20.865-71.605c10.035-10.73,55.983,41.978,59.185,60.623
		c3.202,18.645-17.94,79.341-23.284,79.902C41.489,412.314-9.358,362.549-9.933,342.833z"/>
	<path fill="#F01485" d="M25.694,381.508c-2.172-26.806,11.875-102.292,14.842-105.663c2.969-3.372,8.906-2.249,12.617,0
		c3.71,2.248-13.359,105.663-13.729,110.158C39.052,390.499,26.584,392.495,25.694,381.508z"/>
	<path fill="#F01485" d="M-24.521,379.656c0,0,12.384-66.695,5.262-105.8c-7.124-39.103,37.686,21.896,44.521,1.417
		c6.836-20.479-15.144,57.786-4.519,105.822C25.601,403.058-24.521,379.656-24.521,379.656z"/>
	<path fill="#68C6DD" d="M31.899,251.351c15.826,11.942,51.848,81.298,52.464,88.546c0.618,7.248-2.523,17.107-5.349,22.36
		c-2.823,5.251-53.093-85.917-55.438-89.222C21.233,269.728,25.411,246.456,31.899,251.351z"/>
	<path fill="#64C1C7" d="M5.174,395.949c1.052-17.613,19.918-55.396,34.279-67.626c14.36-12.231,70.987,18.943,73.591,33.931
		c2.603,14.988-31.069,73.361-38.254,75.464C67.603,439.82,4.173,412.652,5.174,395.949z"/>
	<path fill="#64C1C7" d="M-26.331,356.438c0.434-28.429,20.344-101.157,23.403-103.557c3.06-2.397,8.46,0.916,11.695,4.583
		c3.234,3.667-22.025,104.097-22.78,108.598C-14.767,370.563-26.507,368.093-26.331,356.438z"/>
	<path fill="#F01485" d="M-12.405,357.124c0,0,11.125,56.061-2.47,86.831c-13.596,30.77,54.741-12.313,62.4,5.344
		c7.658,17.656-15.813-49.215,3.51-86.741C59.87,345.402-12.405,357.124-12.405,357.124z"/>
	<path fill="#64C1C7" d="M512.081,371.459c13.385,6.013,37.512,30.731,43.044,44.605c5.531,13.874-34.304,44.841-46.66,42.212
		c-12.356-2.628-48.383-44.035-48.032-49.775C460.785,402.76,499.389,365.754,512.081,371.459z"/>
	<path fill="#F01485" d="M66.71,427.92c-8.718-13.636-15.28-82.328-13.484-88.915c1.796-6.587,7.378-14.803,11.26-18.961
		c3.879-4.16,14.808,86.685,15.613,90.073C80.906,413.512,70.285,433.509,66.71,427.92z"/>
</g>
<g id="Layer_4">
</g>
<g id="Layer_2">
</g>
</svg>
