<?xml version="1.0" encoding="utf-8"?>
<!-- Generator: Adobe Illustrator 15.0.0, SVG Export Plug-In . SVG Version: 6.00 Build 0)  -->
<!DOCTYPE svg PUBLIC "-//W3C//DTD SVG 1.1//EN" "http://www.w3.org/Graphics/SVG/1.1/DTD/svg11.dtd">
<svg version="1.1" xmlns="http://www.w3.org/2000/svg" xmlns:xlink="http://www.w3.org/1999/xlink" x="0px" y="0px"
	 width="412.98px" height="406.901px" viewBox="0 0 412.98 406.901" enable-background="new 0 0 412.98 406.901"
	 xml:space="preserve">
<g id="Layer_3">
</g>
<g id="Layer_1">
	<path fill="#F01485" d="M21.001,290.402C17.72,315.9,38.201,387.787,42.564,391.01c4.367,3.221,13.121,2.18,18.599,0.059
		c5.477-2.121-19.376-100.6-19.909-104.879C40.72,281.912,22.346,279.953,21.001,290.402z"/>
	<path fill="#64C1C7" d="M196.437,375.154c0,0,46.354-40.985,52.487-76.066c6.136-35.077,47.31,27.168,64.534,35.269
		c4.966,2.336-46.62,32.123-51.415,76.654C259.852,431.369,196.437,375.154,196.437,375.154z"/>
	<path fill="#64C1C7" d="M344.943,371.169c-13.031,24.589-73.251,75.468-78.675,75.609c-5.421,0.141-11.698-6.217-14.723-11.494
		c-3.025-5.277,76.943-76.963,79.986-80.416C334.573,351.414,350.285,361.089,344.943,371.169z"/>
	<path fill="#64C1C7" d="M88.78,298.931c-10.618,16.716-14.958,58.19-7.201,74.404c7.755,16.216,91.463,6.396,104.381-6.649
		c12.918-13.042,14.604-78.646,8.034-83.028C187.424,279.277,98.845,283.075,88.78,298.931z"/>
	<path fill="#F01485" d="M143.833,297.785c7.984,24.438,57.344,80.569,62.669,81.606c5.327,1.032,12.786-3.665,16.822-7.935
		c4.036-4.267-60.69-82.536-63.009-86.172C157.997,281.65,140.561,287.771,143.833,297.785z"/>
	<path fill="#F01485" d="M214.597,301.923c-17.604,4.863-58.502,56.756-59.324,63.511c-0.819,6.754,2.431,17.628,5.428,23.907
		c2.994,6.277,59.961-60.699,62.594-62.906C225.933,324.226,221.813,299.931,214.597,301.923z"/>
	<path fill="#F01485" d="M275.854,358.959c-0.095,30.425-15.202,14.941-35.051,12.975c-18.292-1.814-35.015,2.256-35.015,2.256
		c0.095-30.424,15.84-52.9,35.194-59.097C260.336,308.897,275.949,328.538,275.854,358.959z"/>
	<path fill="#F01485" d="M75.565,300.393c0,0,1.386,66.021-18.299,99.295c-19.685,33.274,59.039-5.902,63.787,15.516
		c4.749,21.418-7.488-58.868,19.362-99.034C152.692,297.804,75.565,300.393,75.565,300.393z"/>
	<path fill="#68C6DD" d="M105.669,409.31c25.891,1.745,104.782-29.095,109-34.625c4.219-5.53,4.867-15.974,3.741-22.381
		c-1.125-6.405-108.561,31.995-113.122,33.004C100.725,386.321,95.055,408.594,105.669,409.31z"/>
	<path fill="#64C1C7" d="M74.247,275.677c-12.897,23.784-21.854,98.417-19.077,102.641c2.78,4.225,11.255,5.447,17.127,4.793
		c5.873-0.657,21.094-102.079,22.259-106.348C95.721,272.494,79.536,265.926,74.247,275.677z"/>
	<path fill="#F11385" d="M240.22,371.758c4.189,11.408-14.746,55.415-19.16,58.762c-4.413,3.348-13.5,6.316-19.227,7.441
		c-5.73,1.123,16.899-57.885,17.317-60.232C219.566,375.381,238.504,367.083,240.22,371.758z"/>
	<path fill="#F11385" d="M125.639,411.247c-13.234,26.403,6.572,18.817,24.556,24.779c16.575,5.495,29.22,15.479,29.22,15.479
		c13.236-26.404,9.492-51.969-4.492-64.811C160.938,373.851,138.875,384.846,125.639,411.247z"/>
	<path fill="#F01485" d="M316.881,415.729c0,0-46.333,43.905-56.821,79.876c-10.487,35.966-33.199-44.096-50.944-32.769
		c-17.746,11.324,45.261-34.906,55.974-80.419C269.985,361.606,316.881,415.729,316.881,415.729z"/>
	<path fill="#64C1C7" d="M273,402.942c-7.832,17.515-38.992,44.149-56.215,47.337c-17.223,3.189-53.931-66.312-50.292-83.519
		c3.641-17.207,55.694-55.379,62.731-52.822C236.265,316.497,280.428,386.336,273,402.942z"/>
	<path fill="#64C1C7" d="M391.446,374.567c-11.266,21.396-48.591,53.697-67.21,57.398c-18.621,3.701-45.01-82.043-38.194-103.113
		c6.815-21.071,68.063-67.276,75-64.051C367.979,268.028,402.132,354.277,391.446,374.567z"/>
	<path fill="#F01485" d="M369.717,310.294c-12.809,28.57-73.824,94.719-79.446,96.014c-5.623,1.295-12.319-4.05-15.612-8.949
		c-3.292-4.898,77.61-97.067,80.667-101.336C358.385,291.754,374.966,298.585,369.717,310.294z"/>
	<path fill="#F01485" d="M329.369,263.046c2.906,19.935-28.683,93.852-34.712,99.223c-6.03,5.365-17.687,9.691-24.895,11.129
		c-7.205,1.443,31.785-97.912,32.748-101.898C303.474,267.504,328.176,254.875,329.369,263.046z"/>
	<path fill="#F01485" d="M430.784,347.786c0,0-53.879,58.464-67.669,102.947s-33.977-48.813-54.274-33.012
		c-20.297,15.8,52.143-47.523,66.763-103.498C382.29,288.632,430.784,347.786,430.784,347.786z"/>
	<path fill="#68C6DD" d="M277.273,453.754c-12.681-23.269-17.164-118.756-13.737-126.5c3.425-7.747,13.013-15.461,19.544-18.753
		c6.53-3.293,16.035,124.295,17.024,129.291C301.094,442.79,282.471,463.292,277.273,453.754z"/>
	<path fill="#64C1C7" d="M408.212,344.929c15.733,29.063,32.646,116.618,30.221,121.193c-2.427,4.576-11.028,5.017-17.142,3.58
		c-6.116-1.439-32.241-120.772-33.88-125.855C385.771,338.764,401.762,333.017,408.212,344.929z"/>
	<path fill="#64C1C7" d="M71.74,309.711c10.865,14.961,21.748,57.102,19.101,75.732c-2.648,18.634-65.6,27.521-77.459,16.903
		C1.522,391.729-11.912,323.89-7.93,317.836C-3.948,311.78,61.442,295.521,71.74,309.711z"/>
	<path fill="#F01485" d="M84.531,400.233c-0.133,42.418-21.194,20.831-48.868,18.089c-25.503-2.529-48.817,3.146-48.817,3.146
		c0.133-42.417,22.084-73.754,49.067-82.393C62.897,330.438,84.664,357.82,84.531,400.233z"/>
	<path fill="#64C1C7" d="M412.429,360.976c13.385,6.014,37.512,30.731,43.044,44.605c5.531,13.873-34.304,44.84-46.66,42.213
		c-12.356-2.629-48.383-44.035-48.032-49.776S399.737,355.271,412.429,360.976z"/>
</g>
<g id="Layer_2">
</g>
</svg>
