<?xml version="1.0" encoding="utf-8"?>
<!-- Generator: Adobe Illustrator 15.0.0, SVG Export Plug-In . SVG Version: 6.00 Build 0)  -->
<!DOCTYPE svg PUBLIC "-//W3C//DTD SVG 1.1//EN" "http://www.w3.org/Graphics/SVG/1.1/DTD/svg11.dtd">
<svg version="1.1" xmlns="http://www.w3.org/2000/svg" xmlns:xlink="http://www.w3.org/1999/xlink" x="0px" y="0px"
	 width="109.199px" height="202.111px" viewBox="0 0 109.199 202.111" enable-background="new 0 0 109.199 202.111"
	 xml:space="preserve">
<g id="Layer_3">
</g>
<g id="Layer_1">
</g>
<g id="Layer_4">
	<path fill="#689C9F" d="M75.436,186.518c0,2.834-2.298,5.131-5.132,5.131l0,0c-2.834,0-5.132-2.297-5.132-5.131v-60.762
		c0-2.834,2.298-5.133,5.132-5.133l0,0c2.834,0,5.132,2.299,5.132,5.133V186.518z"/>
	<path fill="#689C9F" d="M60.656,186.518c0,2.834-2.298,5.131-5.132,5.131l0,0c-2.834,0-5.132-2.297-5.132-5.131v-60.762
		c0-2.834,2.298-5.133,5.132-5.133l0,0c2.834,0,5.132,2.299,5.132,5.133V186.518z"/>
	<path fill="#689C9F" d="M75.436,130.777c0,4.082-3.309,7.391-7.39,7.391H57.782c-4.082,0-7.39-3.309-7.39-7.391V106.35
		c0-4.08,3.309-7.389,7.39-7.389h10.263c4.082,0,7.39,3.309,7.39,7.389V130.777z"/>
	<g>
		<path fill="#A2DADC" d="M28.327,64.168c-2.597-0.836-5.379,0.592-6.215,3.188l0,0c-0.835,2.598,0.592,5.379,3.188,6.215
			l28.415,9.145c2.597,0.836,5.379-0.592,6.215-3.188l0,0c0.835-2.598-0.593-5.381-3.189-6.215L28.327,64.168z"/>
	</g>
	<path fill="#EDE4B9" d="M41.021,118.041c0,2.879-2.334,5.215-5.214,5.215H22.193c-2.88,0-5.214-2.336-5.214-5.215v-0.688
		c0-2.879,8.121-15.279,8.121-15.279h7.8c0,0,8.121,12.4,8.121,15.279V118.041z"/>
	<path fill="#EDE4B9" d="M32.9,91.779v14.934c0,2.152-1.746,3.898-3.9,3.898l0,0c-2.154,0-3.9-1.746-3.9-3.898V91.779"/>
	<path fill="#EDE4B9" d="M35.055,90.705c0,0.795-0.645,1.439-1.441,1.439h-9.228c-0.796,0-1.441-0.645-1.441-1.439l0,0
		c0-0.797,0.645-1.443,1.441-1.443h9.228C34.41,89.262,35.055,89.908,35.055,90.705L35.055,90.705z"/>
	<path fill="#E49DCA" d="M38.136,117.367c0,2.188-1.774,3.963-3.962,3.963H23.826c-2.188,0-3.962-1.775-3.962-3.963v-0.521
		c0-2.189,6.172-11.615,6.172-11.615h5.928c0,0,6.172,9.426,6.172,11.615V117.367z"/>
	<path fill="#FEA621" d="M86.059,44.152c0,13.378-10.845,24.223-24.223,24.223c-13.377,0-24.222-10.845-24.222-24.223V27.32h48.445"
		/>
	<circle fill="#F01485" cx="37.614" cy="27.32" r="10.469"/>
	<rect x="37.614" y="16.85" fill="#F01485" width="48.445" height="10.47"/>
	<path fill="#F01485" d="M86.059,27.32l-0.28,20.527C74.153,31.014,48.083,39.298,48.083,27.32"/>
	<circle cx="43.618" cy="47.204" r="4.157"/>
	<circle cx="61.631" cy="47.204" r="4.157"/>
	<path opacity="0.55" fill="#96D5B9" stroke="#016E45" stroke-width="2" d="M72.509,41.365c7.945,7.818-10.642,14.17-14.682,11.763
		c-1.331-0.792-2.008-4.112-4.632-4.112c-2.624,0-3.318,3.292-4.632,4.112c-3.908,2.441-21.614-2.417-14.682-11.146
		C39.888,34.417,65.625,34.59,72.509,41.365z"/>
	<path fill="#F01485" d="M29,21.372c0,0,8.927-12.732,28.474-13.348c52.191-1.643,28.304,39.823,28.304,39.823L61.836,23.625
		L29,21.372z"/>
	<path fill="#F01485" d="M87.603,48.969c1.55,3.571,6.471,29.978-1.601,29.978s-3.152-26.407-1.603-29.978
		c0.528-1.216,1.134-1.737,1.602-1.737C86.469,47.232,87.075,47.753,87.603,48.969z"/>
	<path fill="#F01485" d="M85.95,78.934c-9.776,1.582-3.379,19.26,2.952,18.234c-3.423-3.863,0.196-6.346,1.475-9.85
		C91.962,82.967,91.363,78.057,85.95,78.934z"/>
	<path fill="#64C1C7" d="M90.799,78.83c0,0.766-0.62,1.387-1.385,1.387h-6.825c-0.766,0-1.386-0.621-1.386-1.387l0,0
		c0-0.764,0.62-1.385,1.386-1.385h6.825C90.179,77.445,90.799,78.066,90.799,78.83L90.799,78.83z"/>
	<path fill="#64C1C7" d="M50.238,137.564V75.764c0-4.08,1.801-7.389,4.023-7.389h17.292c2.222,0,4.023,3.309,4.023,7.389
		l12.316,86.434"/>
	<g>
		<path fill="#A2DADC" d="M72.01,79.949c0-2.727-2.211-4.939-4.939-4.939l0,0c-2.728,0-4.939,2.213-4.939,4.939v29.85
			c0,2.729,2.211,4.939,4.939,4.939l0,0c2.728,0,4.939-2.211,4.939-4.939V79.949z"/>
	</g>
	<g>
		<path fill="#A2DADC" d="M37.228,104.859c-2.728,0-4.939,2.213-4.939,4.939l0,0c0,2.729,2.211,4.939,4.939,4.939h29.85
			c2.728,0,4.939-2.211,4.939-4.939l0,0c0-2.727-2.212-4.939-4.939-4.939H37.228z"/>
	</g>
	<circle fill="#E49DCA" cx="28.436" cy="84.379" r="2.603"/>
	<circle fill="#E49DCA" cx="32.932" cy="73.441" r="1.699"/>
	<circle fill="#E49DCA" cx="27.54" cy="60.278" r="1.231"/>
	<path fill="#EDE4B9" d="M20.469,79.412L8.717,64.373c-1.695-2.168,4.451-6.971,6.146-4.801l11.752,15.038"/>
	<path fill="#EDE4B9" d="M19.432,81.586c-0.49-0.627-0.379-1.533,0.249-2.021l7.271-5.684c0.627-0.49,1.533-0.379,2.023,0.248l0,0
		c0.491,0.629,0.379,1.533-0.248,2.023l-7.271,5.684C20.829,82.324,19.923,82.213,19.432,81.586L19.432,81.586z"/>
	<path fill="#8CCF87" d="M22.945,80.217c1.224,1.09-3.984-4.719-4.365-5.207l-8.346-10.68c-1.204-1.539,3.161-4.951,4.365-3.41
		L22.945,71.6"/>
</g>
<g id="Layer_2">
</g>
</svg>
