<?xml version="1.0" encoding="utf-8"?>
<!-- Generator: Adobe Illustrator 15.0.0, SVG Export Plug-In . SVG Version: 6.00 Build 0)  -->
<!DOCTYPE svg PUBLIC "-//W3C//DTD SVG 1.1//EN" "http://www.w3.org/Graphics/SVG/1.1/DTD/svg11.dtd">
<svg version="1.1" xmlns="http://www.w3.org/2000/svg" xmlns:xlink="http://www.w3.org/1999/xlink" x="0px" y="0px"
	 width="93.152px" height="195.493px" viewBox="0 0 93.152 195.493" enable-background="new 0 0 93.152 195.493"
	 xml:space="preserve">
<g id="Layer_3">
</g>
<g id="Layer_1">
</g>
<g id="Layer_4">
	<g>
		<path fill="#A2DADC" d="M26.056,65.811c-2.276-1.504-5.34-0.878-6.844,1.397l0,0c-1.504,2.276-0.879,5.34,1.397,6.845
			L45.51,90.511c2.276,1.504,5.34,0.88,6.845-1.397l0,0c1.503-2.273,0.878-5.34-1.397-6.844L26.056,65.811z"/>
	</g>
	<polygon fill="#B5B097" points="11.688,95.592 22.22,84.033 22.22,55.521 11.688,67.081 	"/>
	<path fill="#689C9F" d="M67.6,184.657c0,2.834-2.298,5.131-5.132,5.131l0,0c-2.834,0-5.132-2.297-5.132-5.131v-60.762
		c0-2.834,2.298-5.133,5.132-5.133l0,0c2.834,0,5.132,2.299,5.132,5.133V184.657z"/>
	<path fill="#689C9F" d="M52.82,184.657c0,2.834-2.298,5.131-5.132,5.131l0,0c-2.834,0-5.132-2.297-5.132-5.131v-60.762
		c0-2.834,2.298-5.133,5.132-5.133l0,0c2.834,0,5.132,2.299,5.132,5.133V184.657z"/>
	<path fill="#689C9F" d="M67.6,128.917c0,4.082-3.309,7.391-7.39,7.391H49.947c-4.082,0-7.39-3.309-7.39-7.391v-24.428
		c0-4.08,3.309-7.389,7.39-7.389H60.21c4.082,0,7.39,3.309,7.39,7.389V128.917z"/>
	<path fill="#FEA621" d="M78.223,42.292c0,13.377-10.845,24.223-24.223,24.223c-13.377,0-24.222-10.846-24.222-24.223V25.46h48.445"
		/>
	<circle fill="#F01485" cx="29.779" cy="25.46" r="10.469"/>
	<rect x="29.778" y="14.989" fill="#F01485" width="48.445" height="10.471"/>
	<path fill="#F01485" d="M78.223,25.46l-0.28,20.527C66.317,29.153,40.248,37.438,40.248,25.46"/>
	<circle fill="#4D4D4D" cx="35.783" cy="45.343" r="4.157"/>
	<circle fill="#4D4D4D" cx="53.795" cy="45.343" r="4.157"/>
	<path fill="#F01485" d="M21.165,19.511c0,0,8.927-12.732,28.474-13.348c52.191-1.643,28.304,39.824,28.304,39.824L54,21.765
		L21.165,19.511z"/>
	<path fill="#F01485" d="M79.767,47.108c1.55,3.572,6.471,29.979-1.601,29.979s-3.152-26.406-1.603-29.979
		c0.528-1.215,1.134-1.736,1.602-1.736C78.633,45.372,79.239,45.894,79.767,47.108z"/>
	<path fill="#F01485" d="M78.114,77.073c-9.776,1.582-3.379,19.26,2.952,18.234c-3.423-3.863,0.196-6.346,1.475-9.85
		C84.127,81.106,83.527,76.196,78.114,77.073z"/>
	<path fill="#64C1C7" d="M82.964,76.97c0,0.766-0.62,1.387-1.385,1.387h-6.825c-0.766,0-1.386-0.621-1.386-1.387l0,0
		c0-0.764,0.62-1.385,1.386-1.385h6.825C82.344,75.585,82.964,76.206,82.964,76.97L82.964,76.97z"/>
	<path fill="#64C1C7" d="M42.403,135.704V73.903c0-4.08,1.801-7.389,4.023-7.389h17.292c2.222,0,4.023,3.309,4.023,7.389
		l2.778,62.403"/>
	<g>
		<path fill="#A2DADC" d="M64.174,78.089c0-2.727-2.211-4.939-4.939-4.939l0,0c-2.728,0-4.939,2.213-4.939,4.939v29.85
			c0,2.729,2.211,4.939,4.939,4.939l0,0c2.728,0,4.939-2.211,4.939-4.939V78.089z"/>
	</g>
	<g>
		<path fill="#A2DADC" d="M36.59,88.588c-2.276-1.504-5.34-0.878-6.844,1.397l0,0c-1.504,2.276-0.879,5.34,1.397,6.845
			l24.901,16.458c2.276,1.504,5.34,0.88,6.845-1.397l0,0c1.503-2.273,0.878-5.34-1.397-6.844L36.59,88.588z"/>
	</g>
	<rect x="25.187" y="40.164" fill="none" stroke="#91AC69" stroke-width="2" width="16.5" height="10.415"/>
	<rect x="48.437" y="40.164" fill="none" stroke="#91AC69" stroke-width="2" width="16.5" height="10.415"/>
	<line fill="none" stroke="#91AC69" stroke-width="2" x1="25.187" y1="40.164" x2="82.814" y2="40.164"/>
	<polygon fill="#EDE4B9" points="32.783,107.248 11.719,95.689 11.719,67.178 32.783,78.737 	"/>
	<g>
		<line fill="#EDE4B9" x1="14.435" y1="75.668" x2="29.778" y2="84.089"/>
		<g>
			<path fill="#B5B097" d="M14.056,76.315c5.114,2.808,10.229,5.614,15.344,8.421c0.848,0.466,1.605-0.83,0.757-1.295
				c-5.114-2.807-10.229-5.614-15.344-8.421C13.965,74.555,13.208,75.85,14.056,76.315L14.056,76.315z"/>
		</g>
	</g>
	<g>
		<line fill="#EDE4B9" x1="14.435" y1="84.668" x2="29.778" y2="93.089"/>
		<g>
			<path fill="#B5B097" d="M14.056,85.315c5.114,2.808,10.229,5.614,15.344,8.421c0.848,0.466,1.605-0.83,0.757-1.295
				c-5.114-2.807-10.229-5.614-15.344-8.421C13.965,83.555,13.208,84.85,14.056,85.315L14.056,85.315z"/>
		</g>
	</g>
	<g>
		<line fill="#EDE4B9" x1="14.435" y1="87.668" x2="29.778" y2="96.089"/>
		<g>
			<path fill="#B5B097" d="M14.056,88.315c5.114,2.808,10.229,5.614,15.344,8.421c0.848,0.466,1.605-0.83,0.757-1.295
				c-5.114-2.807-10.229-5.614-15.344-8.421C13.965,86.555,13.208,87.85,14.056,88.315L14.056,88.315z"/>
		</g>
	</g>
	<g>
		<line fill="#EDE4B9" x1="14.435" y1="90.668" x2="29.778" y2="99.089"/>
		<g>
			<path fill="#B5B097" d="M14.056,91.315c5.114,2.808,10.229,5.614,15.344,8.421c0.848,0.466,1.605-0.83,0.757-1.295
				c-5.114-2.807-10.229-5.614-15.344-8.421C13.965,89.555,13.208,90.85,14.056,91.315L14.056,91.315z"/>
		</g>
	</g>
</g>
<g id="Layer_2">
</g>
</svg>
