<?xml version="1.0" encoding="utf-8"?>
<!-- Generator: Adobe Illustrator 15.0.0, SVG Export Plug-In . SVG Version: 6.00 Build 0)  -->
<!DOCTYPE svg PUBLIC "-//W3C//DTD SVG 1.1//EN" "http://www.w3.org/Graphics/SVG/1.1/DTD/svg11.dtd">
<svg version="1.1" xmlns="http://www.w3.org/2000/svg" xmlns:xlink="http://www.w3.org/1999/xlink" x="0px" y="0px"
	 width="133.272px" height="215.439px" viewBox="0 0 133.272 215.439" enable-background="new 0 0 133.272 215.439"
	 xml:space="preserve">
<g id="Layer_3">
</g>
<g id="Layer_1">
</g>
<g id="Layer_4">
	<path fill="#B088A1" d="M25.995,152.162c-3.396,1.295-8.017,1.75-10.189-1.705c-1.108-1.76-2.361-4.006-3.037-5.082
		c-2.173-3.455-1.114-9.084,2.937-9.574c15.084-1.824,45.365-60.908,45.365-60.908c3.456-2.172,8.018-1.133,10.19,2.322l2.422,3.85
		c2.172,3.457,1.133,8.02-2.322,10.191C71.36,91.256,40.192,146.75,25.995,152.162z"/>
	<g>
		<path fill="#A2DADC" d="M67.14,89.883c-1.179-2.461-0.139-5.41,2.321-6.588l0,0c2.46-1.18,5.409-0.141,6.588,2.32l12.896,26.92
			c1.179,2.461,0.14,5.41-2.321,6.59l0,0c-2.46,1.178-5.41,0.139-6.588-2.322L67.14,89.883z"/>
	</g>
	<g>
		<path fill="#A2DADC" d="M109.271,97.324c2.46-1.18,5.409-0.141,6.588,2.32l0,0c1.179,2.459,0.14,5.41-2.321,6.588l-26.92,12.895
			c-2.46,1.18-5.411,0.141-6.589-2.32l0,0c-1.179-2.459-0.139-5.41,2.321-6.588L109.271,97.324z"/>
	</g>
	<path fill="#64C1C7" d="M45.097,137.24c-1.112,3.502,3.021-1.621,6.912-0.385l9.782,3.105c3.891,1.234,7.944-0.604,9.056-4.105
		l15.035-47.371c1.112-3.502-1.141-7.342-5.031-8.576l-9.782-3.104c-3.891-1.236-7.944,0.602-9.056,4.104L45.097,137.24z"/>
	<path fill="#FEA621" d="M45.396,62.518c4.296,12.668,18.048,19.457,30.718,15.162c12.669-4.297,19.457-18.049,15.161-30.719
		L85.869,31.02L39.99,46.576"/>
	<circle fill="#F01485" cx="85.87" cy="31.021" r="10.469"/>
	
		<rect x="37.027" y="28.607" transform="matrix(-0.947 0.3211 -0.3211 -0.947 130.1212 46.2209)" fill="#F01485" width="48.445" height="10.468"/>
	<path fill="#F01485" d="M39.99,46.576l6.857,19.35c5.604-19.674,32.954-20.199,29.107-31.543"/>
	<circle fill="#4D4D4D" cx="86.568" cy="51.779" r="4.156"/>
	<circle fill="#4D4D4D" cx="69.509" cy="57.563" r="4.157"/>
	<path fill="#F01485" d="M92.117,22.621c0,0-12.543-9.191-31.252-3.496C10.911,34.328,46.848,65.926,46.848,65.926l14.896-30.627
		L92.117,22.621z"/>
	<path fill="#689C9F" d="M86.116,150.768c2.784,0.658,5.57-1.045,6.224-3.801l0,0c0.652-2.758-1.075-5.529-3.86-6.188l-37.14-8.543
		c-2.783-0.658-5.309,1.057-5.961,3.814l-0.781,3.654c-0.653,2.758,3.24,2.004,6.024,2.662L86.116,150.768z"/>
	<path fill="#689C9F" d="M78.164,181.967c-0.313,2.818,1.716,5.354,4.532,5.668l0,0c2.816,0.313,5.354-1.717,5.668-4.533
		l3.994-35.906c0.313-2.816-1.717-5.355-4.533-5.668l0,0c-2.816-0.314-5.354,1.717-5.668,4.533L78.164,181.967z"/>
	<path fill="#689C9F" d="M37.54,162.977c-0.71,2.588,0.931,5.291,3.663,6.043l0,0c2.733,0.748,5.524-0.74,6.234-3.326l8.854-29.799
		c0.71-2.586-1.284,0.283-4.017-0.467l-3.006,2.811c-2.732-0.75-3.979-1.482-4.689,1.105L37.54,162.977z"/>
	<path fill="#689C9F" d="M13.099,188.104c-1.939,2.068-1.836,5.314,0.23,7.254l0,0c2.067,1.939,5.314,1.836,7.255-0.23l24.72-26.348
		c1.939-2.064,1.836-5.314-0.231-7.252l0,0c-2.066-1.941-5.314-1.838-7.254,0.23L13.099,188.104z"/>
	<path fill="#EDE4B9" d="M48.821,126.627c-1.448,4.645-5.78,7.424-9.677,6.209l-11.64-3.629c-3.896-1.215-5.881-5.965-4.434-10.607
		l11.693-37.502c1.448-4.646,5.78-7.424,9.677-6.209l11.64,3.629c3.896,1.215,5.882,5.963,4.434,10.607L48.821,126.627z"/>
	<g>
		<path fill="#A2DADC" d="M67.369,85.68c2.719-0.232,5.11,1.783,5.343,4.5l0,0c0.232,2.719-1.782,5.109-4.501,5.344l-29.739,2.545
			c-2.719,0.232-5.111-1.783-5.344-4.502l0,0c-0.232-2.717,1.783-5.109,4.501-5.342L67.369,85.68z"/>
	</g>
	<g>
		<path fill="#A2DADC" d="M45.515,122.459c0.232,2.719-1.782,5.109-4.5,5.342l0,0c-2.718,0.232-5.109-1.781-5.343-4.5l-2.545-29.74
			c-0.232-2.719,1.783-5.111,4.501-5.344l0,0c2.718-0.23,5.109,1.783,5.342,4.502L45.515,122.459z"/>
	</g>
	<path fill="#8CCF87" d="M128.214,184.586c0.158,0.541-0.242,1.133-0.895,1.324l0,0c-0.653,0.191-1.311-0.092-1.469-0.633
		L98.748,92.832c-0.158-0.541,0.242-1.135,0.895-1.326l0,0c0.653-0.191,1.311,0.094,1.469,0.633L128.214,184.586z"/>
	<path fill="#E49DCA" d="M90.294,78.967c0,2.193-1.777,3.971-3.97,3.971H61.011c-2.193,0-3.971-1.777-3.971-3.971l0,0
		c0-2.191,1.777-3.969,3.971-3.969h25.313C88.517,74.998,90.294,76.775,90.294,78.967L90.294,78.967z"/>
	<path fill="#E49DCA" d="M84.646,111.723c-2.188,0.127-4.066-1.543-4.193-3.732l-1.468-25.271c-0.128-2.189,1.544-4.066,3.733-4.193
		l0,0c2.188-0.127,4.065,1.545,4.193,3.732l1.468,25.271C88.506,109.719,86.835,111.596,84.646,111.723L84.646,111.723z"/>
	<path fill="#E49DCA" d="M73.369,107.205c-2.104-0.615-3.311-2.82-2.694-4.926l7.114-24.293c0.616-2.104,2.822-3.311,4.927-2.693
		l0,0c2.104,0.615,3.31,2.82,2.693,4.926l-7.114,24.293C77.679,106.615,75.474,107.822,73.369,107.205L73.369,107.205z"/>
	<path fill="#F01485" d="M44.059,65.025c-3.379,1.932-23.132,20.137-16.666,24.969c6.465,4.834,18.336-19.262,19.232-23.049
		c0.306-1.291,0.133-2.072-0.242-2.352C46.008,64.313,45.21,64.369,44.059,65.025z"/>
	<path fill="#F01485" d="M27.442,90.016c6.882,7.119-8.826,17.449-13.283,12.836c5.055-1.043,3.644-5.199,4.717-8.771
		C20.211,89.645,23.632,86.072,27.442,90.016z"/>
	<path fill="#64C1C7" d="M23.619,87.027c-0.458,0.613-0.332,1.482,0.28,1.941l5.467,4.086c0.612,0.459,1.481,0.332,1.939-0.281l0,0
		c0.458-0.611,0.333-1.48-0.28-1.939l-5.467-4.086C24.946,86.291,24.077,86.416,23.619,87.027L23.619,87.027z"/>
</g>
<g id="Layer_2">
</g>
</svg>
