<?xml version="1.0" encoding="utf-8"?>
<!-- Generator: Adobe Illustrator 15.0.0, SVG Export Plug-In . SVG Version: 6.00 Build 0)  -->
<!DOCTYPE svg PUBLIC "-//W3C//DTD SVG 1.1//EN" "http://www.w3.org/Graphics/SVG/1.1/DTD/svg11.dtd">
<svg version="1.1" xmlns="http://www.w3.org/2000/svg" xmlns:xlink="http://www.w3.org/1999/xlink" x="0px" y="0px" width="306px"
	 height="512.153px" viewBox="0 0 306 512.153" enable-background="new 0 0 306 512.153" xml:space="preserve">
<g id="Layer_3">
</g>
<g id="Layer_4">
	<circle fill="none" stroke="#CCCCCC" stroke-width="4" cx="113.745" cy="53.434" r="17.392"/>
	<circle fill="none" stroke="#CCCCCC" stroke-width="4" cx="184.233" cy="53.434" r="17.392"/>
	<path fill="#64C1C7" d="M266.287,53.1c0,0,2.295-5.759,0.892-9.05c-1.403-3.29,6.313,0.004,8.508-0.147
		c0.633-0.043-2.831,5.017-0.75,9.048C275.89,54.793,266.287,53.1,266.287,53.1z"/>
	<path fill="#64C1C7" d="M280.967,45.502c0.107,2.733-3.01,10.014-3.546,10.291c-0.537,0.276-1.533,0.041-2.14-0.261
		c-0.607-0.302,3.295-10.321,3.401-10.764C278.789,44.324,280.923,44.381,280.967,45.502z"/>
	<path fill="#64C1C7" d="M251.098,51.213c-0.104,1.944,1.848,5.692,3.56,6.695c1.711,1.004,9.55-3.925,10.097-5.668
		c0.546-1.743-3.061-7.418-3.973-7.471C259.87,44.717,251.196,49.369,251.098,51.213z"/>
	<path fill="#F01485" d="M257.17,48.247c-0.37,2.507,2.026,9.564,2.532,9.879c0.506,0.315,1.52,0.21,2.152,0
		c0.633-0.211-2.279-9.879-2.342-10.3C259.449,47.406,257.322,47.22,257.17,48.247z"/>
	<path fill="#F01485" d="M264.211,45.585c-1.359,1.236-2.515,7.135-2.256,7.679s1.091,1.192,1.673,1.513
		c0.582,0.318,2.454-7.504,2.584-7.798C266.343,46.683,264.769,45.077,264.211,45.585z"/>
	<path fill="#F01485" d="M273.21,49.856c0,2.988-1.754,1.472-4.052,1.284c-2.117-0.172-4.051,0.233-4.051,0.233
		c0-2.989,1.814-5.203,4.051-5.818C271.396,44.94,273.21,46.866,273.21,49.856z"/>
	<path fill="#F01485" d="M248.604,48.42c0,0,2.113,6.236,0.897,9.893s6.429-2.048,7.595-0.133c1.166,1.915-2.583-5.403-0.771-9.894
		C257.155,46.232,248.604,48.42,248.604,48.42z"/>
	<path fill="#68C6DD" d="M259.141,60.447c2.7-1.116,8.845-7.601,8.95-8.278c0.105-0.678-0.431-1.6-0.913-2.092
		c-0.481-0.49-9.057,8.033-9.457,8.343S258.034,60.905,259.141,60.447z"/>
	<path fill="#64C1C7" d="M248.295,50.591c0.074,2.658,3.471,9.458,3.992,9.683c0.522,0.225,1.444-0.085,1.996-0.429
		c0.552-0.343-3.757-9.732-3.886-10.154C250.268,49.271,248.265,49.501,248.295,50.591z"/>
	<path fill="#F11385" d="M270.487,50.671c1.077,0.767,1.709,5.444,1.459,5.945c-0.251,0.501-0.992,1.198-1.502,1.574
		c-0.511,0.375-1.635-5.761-1.729-5.981C268.623,51.989,270.046,50.355,270.487,50.671z"/>
	<path fill="#F11385" d="M255.339,57.481c0.19,2.896,1.742,1.282,3.891,0.911c1.98-0.341,3.825-0.108,3.825-0.108
		c-0.191-2.897-2.038-4.895-4.181-5.305C256.73,52.567,255.148,54.584,255.339,57.481z"/>
	<path fill="#F01485" d="M280.715,50.673c0,0-2.125,6.007-1.107,9.586c1.017,3.579-5.871-2.137-7-0.304s2.535-5.188,0.991-9.591
		C272.892,48.351,280.715,50.673,280.715,50.673z"/>
	<path fill="#64C1C7" d="M275.711,53.942c0.222,1.877-1.373,5.67-2.919,6.783c-1.545,1.114-9.23-3.017-9.855-4.661
		c-0.625-1.646,2.403-7.443,3.257-7.569S275.501,52.164,275.711,53.942z"/>
	<path fill="#FEA621" stroke="#FEA621" stroke-width="2" d="M279.855,57.362c-7.885-2.8-22.509-2.709-30.485,0
		c0,0,2.489,14.314,6.669,15.32c4.18,1.005,16.227,0.148,16.836-0.146c0.608-0.293,4.746-4.719,6.477-14.064"/>
	<path fill="none" stroke="#FEA621" stroke-width="2" d="M261.691,33.824c-4.809,0.229-14.755,4.808-13.335,17.778
		c0.031,0.281,0.067,0.568,0.109,0.857c2.356,16.362,5.496,19.312,6.544,19.947c1.048,0.636,15.992,0.636,18.541,0
		c2.549-0.636,6.699-12.092,7.166-19.947s-1.394-17.771-9.591-18.521C267.522,33.608,264.095,33.709,261.691,33.824z"/>
	<g>
		<g>
			<path fill="#F01485" d="M283.436,39.261c3.264-3.8,7.064-7.055,11.441-9.511c0.827-0.464-1.126-0.264-1.481-0.064
				c-4.468,2.508-8.376,5.833-11.709,9.716C281.284,39.868,283.134,39.613,283.436,39.261L283.436,39.261z"/>
		</g>
	</g>
	<g>
		<g>
			<path fill="#4FA0CA" d="M284.621,55.689c2.213-0.012,4.425-0.159,6.62,0.196c0.899,0.146,1.986-1.116,0.689-1.326
				c-2.354-0.38-4.741-0.209-7.114-0.196C283.746,54.369,283.306,55.696,284.621,55.689L284.621,55.689z"/>
		</g>
	</g>
	<g>
		<g>
			<path fill="#4FA0CA" d="M280.502,71.747c1.165,1.61,1.887,3.427,2.466,5.316c0.286,0.933,2.215,0.407,1.932-0.518
				c-0.615-2.007-1.398-3.961-2.635-5.67C281.722,70.126,279.891,70.903,280.502,71.747L280.502,71.747z"/>
		</g>
	</g>
	<g>
		<g>
			<path fill="#F0047F" d="M249.417,70.628c-4.559,1.365-8.363,4.178-12.414,6.567c-1.125,0.664-0.098,1.751,0.867,1.182
				c3.879-2.289,7.548-5.074,11.913-6.382C250.964,71.642,250.608,70.271,249.417,70.628L249.417,70.628z"/>
		</g>
	</g>
	<g>
		<g>
			<path fill="#4FA0CA" d="M245.381,40.661c-3.654-3.646-8.928-5.417-13.897-6.381c-0.992-0.192-1.938,1.219-0.651,1.469
				c4.487,0.87,9.477,2.481,12.785,5.783C244.267,42.18,246.089,41.368,245.381,40.661L245.381,40.661z"/>
		</g>
	</g>
	<g>
		<g>
			<path fill="#F01485" d="M263.515,29.852c-0.727-1.855-0.213-3.769,0.384-5.586c0.156-0.476-1.738-0.226-1.914,0.311
				c-0.613,1.87-1.149,3.884-0.401,5.793C261.792,30.901,263.69,30.299,263.515,29.852L263.515,29.852z"/>
		</g>
	</g>
	<line fill="none" stroke="#CCCCCC" stroke-width="4" x1="60.648" y1="52.116" x2="96.353" y2="52.116"/>
	<line fill="none" stroke="#CCCCCC" stroke-width="4" x1="132.059" y1="53.17" x2="167.764" y2="53.17"/>
	<line fill="none" stroke="#CCCCCC" stroke-width="4" x1="200.834" y1="52.906" x2="236.539" y2="52.906"/>
	<circle fill="none" stroke="#FEA621" stroke-width="4" cx="43.256" cy="53.434" r="17.392"/>
	<path fill="#808080" d="M44.127,59.069H42.86v-9.871c-0.098,0.101-0.241,0.216-0.429,0.347c-0.188,0.13-0.399,0.259-0.634,0.386
		c-0.234,0.128-0.482,0.247-0.742,0.358c-0.26,0.112-0.514,0.199-0.761,0.264v-1.323c0.278-0.079,0.573-0.187,0.885-0.322
		c0.312-0.136,0.618-0.287,0.919-0.454c0.302-0.167,0.586-0.343,0.854-0.525c0.268-0.184,0.5-0.363,0.696-0.538h0.479V59.069z"/>
	<path fill="#808080" d="M115.723,50.64c0-0.351-0.053-0.655-0.159-0.916c-0.105-0.26-0.25-0.477-0.433-0.649
		c-0.183-0.172-0.398-0.301-0.646-0.386c-0.247-0.085-0.515-0.128-0.804-0.128c-0.247,0-0.489,0.035-0.726,0.104
		c-0.237,0.069-0.468,0.165-0.692,0.287s-0.44,0.269-0.649,0.438c-0.209,0.17-0.403,0.358-0.583,0.565v-1.402
		c0.355-0.355,0.753-0.628,1.194-0.816s0.978-0.283,1.611-0.283c0.453,0,0.873,0.067,1.26,0.203
		c0.386,0.136,0.721,0.334,1.004,0.594c0.284,0.261,0.506,0.582,0.668,0.964c0.163,0.383,0.244,0.82,0.244,1.314
		c0,0.452-0.05,0.86-0.151,1.228c-0.1,0.366-0.252,0.712-0.456,1.035c-0.204,0.324-0.46,0.635-0.769,0.933
		c-0.309,0.297-0.672,0.6-1.09,0.908c-0.521,0.382-0.949,0.709-1.287,0.979c-0.337,0.271-0.605,0.524-0.804,0.761
		c-0.199,0.236-0.338,0.474-0.417,0.709c-0.08,0.237-0.12,0.509-0.12,0.817h5.518v1.171h-6.84v-0.565
		c0-0.489,0.052-0.919,0.155-1.291s0.273-0.725,0.51-1.06c0.237-0.335,0.547-0.669,0.932-1.004c0.384-0.335,0.854-0.712,1.41-1.131
		c0.402-0.298,0.738-0.582,1.009-0.853c0.271-0.271,0.488-0.542,0.653-0.813c0.165-0.271,0.282-0.546,0.352-0.825
		C115.688,51.25,115.723,50.953,115.723,50.64z"/>
	<path fill="#808080" d="M188.345,55.835c0,0.515-0.094,0.983-0.282,1.406c-0.188,0.422-0.454,0.783-0.796,1.083
		c-0.343,0.301-0.754,0.533-1.233,0.697c-0.479,0.165-1.007,0.247-1.584,0.247c-1.057,0-1.896-0.207-2.52-0.621v-1.402
		c0.747,0.605,1.602,0.908,2.566,0.908c0.386,0,0.735-0.051,1.047-0.151s0.58-0.247,0.804-0.438s0.397-0.422,0.518-0.693
		c0.121-0.271,0.182-0.576,0.182-0.916c0-1.492-1.031-2.238-3.091-2.238h-0.92v-1.107h0.874c1.824,0,2.736-0.701,2.736-2.104
		c0-1.296-0.696-1.944-2.087-1.944c-0.783,0-1.517,0.271-2.203,0.813v-1.267c0.706-0.436,1.546-0.653,2.52-0.653
		c0.464,0,0.884,0.066,1.26,0.199s0.698,0.318,0.966,0.558c0.268,0.239,0.476,0.526,0.622,0.86c0.147,0.335,0.221,0.704,0.221,1.107
		c0,1.504-0.737,2.47-2.21,2.9v0.032c0.376,0.042,0.724,0.137,1.043,0.282c0.319,0.146,0.595,0.336,0.827,0.569
		c0.232,0.234,0.414,0.509,0.545,0.825S188.345,55.452,188.345,55.835z"/>
	<circle fill="none" stroke="#CCCCCC" stroke-width="4" cx="186.671" cy="150.011" r="17.392"/>
	<path fill="#64C1C7" d="M268.725,149.677c0,0,2.295-5.759,0.892-9.05c-1.403-3.29,6.313,0.004,8.508-0.147
		c0.633-0.043-2.831,5.017-0.75,9.048C278.328,151.37,268.725,149.677,268.725,149.677z"/>
	<path fill="#64C1C7" d="M283.405,142.079c0.107,2.733-3.01,10.014-3.546,10.291c-0.537,0.276-1.533,0.041-2.14-0.261
		c-0.607-0.302,3.295-10.321,3.401-10.764C281.227,140.901,283.361,140.958,283.405,142.079z"/>
	<path fill="#64C1C7" d="M253.536,147.79c-0.104,1.944,1.848,5.692,3.56,6.695c1.711,1.004,9.55-3.925,10.097-5.668
		c0.546-1.743-3.061-7.418-3.973-7.471C262.308,141.294,253.634,145.946,253.536,147.79z"/>
	<path fill="#F01485" d="M259.608,144.824c-0.37,2.507,2.026,9.564,2.532,9.879c0.506,0.315,1.52,0.21,2.152,0
		c0.633-0.211-2.279-9.879-2.342-10.3C261.887,143.983,259.76,143.797,259.608,144.824z"/>
	<path fill="#F01485" d="M266.649,142.162c-1.359,1.236-2.515,7.135-2.256,7.679s1.091,1.192,1.673,1.513
		c0.582,0.318,2.454-7.504,2.584-7.798C268.781,143.26,267.207,141.654,266.649,142.162z"/>
	<path fill="#F01485" d="M275.648,146.434c0,2.988-1.754,1.472-4.052,1.284c-2.117-0.172-4.051,0.233-4.051,0.233
		c0-2.989,1.814-5.203,4.051-5.818C273.834,141.518,275.648,143.443,275.648,146.434z"/>
	<path fill="#F01485" d="M251.042,144.997c0,0,2.113,6.236,0.897,9.893s6.429-2.048,7.595-0.133
		c1.166,1.915-2.583-5.403-0.771-9.894C259.593,142.81,251.042,144.997,251.042,144.997z"/>
	<path fill="#68C6DD" d="M261.579,157.024c2.7-1.116,8.845-7.601,8.95-8.278c0.105-0.678-0.431-1.6-0.913-2.092
		c-0.481-0.49-9.057,8.033-9.457,8.343S260.472,157.482,261.579,157.024z"/>
	<path fill="#64C1C7" d="M250.733,147.168c0.074,2.658,3.471,9.458,3.992,9.683c0.522,0.225,1.444-0.085,1.996-0.429
		c0.552-0.343-3.757-9.732-3.886-10.154C252.706,145.848,250.703,146.078,250.733,147.168z"/>
	<path fill="#F11385" d="M272.925,147.248c1.077,0.767,1.709,5.444,1.459,5.945c-0.251,0.501-0.992,1.198-1.502,1.574
		c-0.511,0.375-1.635-5.761-1.729-5.981C271.061,148.566,272.484,146.933,272.925,147.248z"/>
	<path fill="#F11385" d="M257.777,154.059c0.19,2.896,1.742,1.282,3.891,0.911c1.98-0.341,3.825-0.108,3.825-0.108
		c-0.191-2.897-2.038-4.895-4.181-5.305C259.168,149.145,257.586,151.161,257.777,154.059z"/>
	<path fill="#F01485" d="M283.153,147.25c0,0-2.125,6.007-1.107,9.586c1.017,3.579-5.871-2.137-7-0.304s2.535-5.188,0.991-9.591
		C275.33,144.928,283.153,147.25,283.153,147.25z"/>
	<path fill="#64C1C7" d="M278.149,150.52c0.222,1.877-1.373,5.67-2.919,6.783c-1.545,1.114-9.23-3.017-9.855-4.661
		c-0.625-1.646,2.403-7.443,3.257-7.569S277.939,148.741,278.149,150.52z"/>
	<path fill="#FEA621" stroke="#FEA621" stroke-width="2" d="M282.293,153.939c-7.885-2.8-22.509-2.709-30.485,0
		c0,0,2.489,14.314,6.669,15.32c4.18,1.005,16.227,0.148,16.836-0.146c0.608-0.293,4.746-4.719,6.477-14.064"/>
	<path fill="none" stroke="#FEA621" stroke-width="2" d="M264.129,130.401c-4.809,0.229-14.755,4.808-13.335,17.778
		c0.031,0.281,0.067,0.568,0.109,0.857c2.356,16.362,5.496,19.312,6.544,19.947c1.048,0.636,15.992,0.636,18.541,0
		c2.549-0.636,6.699-12.092,7.166-19.947s-1.394-17.771-9.591-18.521C269.96,130.186,266.533,130.286,264.129,130.401z"/>
	<g>
		<g>
			<path fill="#F01485" d="M285.874,135.839c3.264-3.801,7.064-7.056,11.441-9.512c0.827-0.465-1.126-0.264-1.481-0.064
				c-4.468,2.508-8.376,5.833-11.709,9.715C283.722,136.445,285.572,136.19,285.874,135.839L285.874,135.839z"/>
		</g>
	</g>
	<g>
		<g>
			<path fill="#4FA0CA" d="M287.059,152.267c2.213-0.012,4.425-0.158,6.62,0.196c0.899,0.146,1.986-1.116,0.689-1.326
				c-2.355-0.38-4.741-0.209-7.114-0.196C286.184,150.946,285.743,152.273,287.059,152.267L287.059,152.267z"/>
		</g>
	</g>
	<g>
		<g>
			<path fill="#4FA0CA" d="M282.939,168.324c1.166,1.61,1.888,3.427,2.467,5.316c0.286,0.933,2.215,0.407,1.932-0.518
				c-0.615-2.007-1.398-3.96-2.635-5.67C284.16,166.702,282.329,167.48,282.939,168.324L282.939,168.324z"/>
		</g>
	</g>
	<g>
		<g>
			<path fill="#F0047F" d="M251.854,167.205c-4.559,1.364-8.363,4.178-12.414,6.567c-1.125,0.664-0.098,1.751,0.867,1.182
				c3.879-2.289,7.548-5.074,11.913-6.382C253.402,168.219,253.046,166.848,251.854,167.205L251.854,167.205z"/>
		</g>
	</g>
	<g>
		<g>
			<path fill="#4FA0CA" d="M247.819,137.238c-3.655-3.646-8.928-5.417-13.897-6.381c-0.992-0.192-1.938,1.219-0.651,1.469
				c4.487,0.87,9.477,2.481,12.785,5.783C246.705,138.757,248.527,137.945,247.819,137.238L247.819,137.238z"/>
		</g>
	</g>
	<g>
		<g>
			<path fill="#F01485" d="M265.953,126.429c-0.727-1.855-0.213-3.769,0.383-5.586c0.156-0.476-1.737-0.226-1.913,0.311
				c-0.614,1.87-1.15,3.884-0.402,5.793C264.229,127.479,266.128,126.876,265.953,126.429L265.953,126.429z"/>
		</g>
	</g>
	<line fill="none" stroke="#CCCCCC" stroke-width="4" x1="134.497" y1="149.747" x2="170.202" y2="149.747"/>
	<line fill="none" stroke="#CCCCCC" stroke-width="4" x1="203.272" y1="149.483" x2="238.977" y2="149.483"/>
	<circle fill="none" stroke="#FEA621" stroke-width="4" cx="45.694" cy="150.011" r="17.392"/>
	<path fill="#808080" d="M46.565,155.646h-1.268v-9.871c-0.098,0.101-0.241,0.216-0.429,0.347c-0.188,0.13-0.399,0.259-0.634,0.386
		c-0.234,0.128-0.482,0.247-0.742,0.358c-0.26,0.112-0.514,0.199-0.761,0.264v-1.323c0.278-0.079,0.573-0.187,0.885-0.322
		c0.312-0.136,0.618-0.287,0.919-0.454c0.302-0.167,0.586-0.343,0.854-0.525c0.268-0.184,0.5-0.363,0.696-0.538h0.479V155.646z"/>
	<path fill="#808080" d="M118.161,147.217c0-0.351-0.053-0.655-0.159-0.916c-0.105-0.26-0.25-0.477-0.433-0.649
		c-0.183-0.172-0.398-0.301-0.646-0.386c-0.247-0.085-0.515-0.128-0.804-0.128c-0.247,0-0.489,0.035-0.726,0.104
		c-0.237,0.069-0.468,0.165-0.692,0.287s-0.44,0.269-0.649,0.438c-0.209,0.17-0.403,0.358-0.583,0.565v-1.402
		c0.355-0.355,0.753-0.628,1.194-0.816s0.978-0.283,1.611-0.283c0.453,0,0.873,0.067,1.26,0.203
		c0.386,0.136,0.721,0.334,1.004,0.594c0.284,0.261,0.506,0.582,0.668,0.964c0.163,0.383,0.244,0.82,0.244,1.314
		c0,0.452-0.05,0.86-0.151,1.228c-0.1,0.366-0.252,0.712-0.456,1.035c-0.204,0.324-0.46,0.635-0.769,0.933
		c-0.309,0.297-0.672,0.6-1.09,0.908c-0.521,0.382-0.949,0.709-1.287,0.979c-0.337,0.271-0.605,0.524-0.804,0.761
		c-0.199,0.236-0.338,0.474-0.417,0.709c-0.08,0.237-0.12,0.509-0.12,0.817h5.518v1.171h-6.84v-0.565
		c0-0.489,0.052-0.919,0.155-1.291s0.273-0.725,0.51-1.06c0.237-0.335,0.547-0.669,0.932-1.004c0.384-0.335,0.854-0.712,1.41-1.131
		c0.402-0.298,0.738-0.582,1.009-0.853c0.271-0.271,0.488-0.542,0.653-0.813c0.165-0.271,0.282-0.546,0.352-0.825
		C118.126,147.827,118.161,147.53,118.161,147.217z"/>
	<path fill="#808080" d="M190.783,152.412c0,0.515-0.094,0.983-0.282,1.406c-0.188,0.422-0.454,0.783-0.796,1.083
		c-0.343,0.301-0.754,0.533-1.233,0.697c-0.479,0.165-1.007,0.247-1.584,0.247c-1.057,0-1.896-0.207-2.52-0.621v-1.402
		c0.747,0.605,1.602,0.908,2.566,0.908c0.386,0,0.735-0.051,1.047-0.151s0.58-0.247,0.804-0.438s0.397-0.422,0.518-0.693
		c0.121-0.271,0.182-0.576,0.182-0.916c0-1.492-1.031-2.238-3.091-2.238h-0.92v-1.107h0.874c1.824,0,2.736-0.701,2.736-2.104
		c0-1.296-0.696-1.944-2.087-1.944c-0.783,0-1.517,0.271-2.203,0.813v-1.267c0.706-0.436,1.546-0.653,2.52-0.653
		c0.464,0,0.884,0.066,1.26,0.199s0.698,0.318,0.966,0.558c0.268,0.239,0.476,0.526,0.622,0.86c0.147,0.335,0.221,0.704,0.221,1.107
		c0,1.504-0.737,2.47-2.21,2.9v0.032c0.376,0.042,0.724,0.137,1.043,0.282c0.319,0.146,0.595,0.336,0.827,0.569
		c0.232,0.234,0.414,0.509,0.545,0.825S190.783,152.029,190.783,152.412z"/>
	<path fill="#64C1C7" d="M265.47,250.875c0,0,2.295-5.759,0.892-9.05c-1.403-3.29,6.313,0.004,8.508-0.147
		c0.633-0.043-2.831,5.017-0.75,9.048C275.072,252.568,265.47,250.875,265.47,250.875z"/>
	<path fill="#64C1C7" d="M280.149,243.277c0.107,2.733-3.01,10.014-3.546,10.291c-0.537,0.276-1.533,0.041-2.14-0.261
		c-0.607-0.302,3.295-10.321,3.401-10.764C277.972,242.1,280.106,242.156,280.149,243.277z"/>
	<path fill="#64C1C7" d="M250.28,248.988c-0.104,1.944,1.848,5.692,3.56,6.695c1.711,1.004,9.55-3.925,10.097-5.668
		c0.546-1.743-3.061-7.418-3.973-7.471C259.053,242.492,250.379,247.145,250.28,248.988z"/>
	<path fill="#F01485" d="M256.353,246.022c-0.37,2.507,2.026,9.564,2.532,9.879c0.506,0.315,1.52,0.21,2.152,0
		c0.633-0.211-2.279-9.879-2.342-10.3C258.632,245.182,256.505,244.995,256.353,246.022z"/>
	<path fill="#F01485" d="M263.394,243.36c-1.359,1.236-2.515,7.135-2.256,7.679s1.091,1.192,1.673,1.513
		c0.582,0.318,2.454-7.504,2.584-7.798C265.525,244.458,263.951,242.853,263.394,243.36z"/>
	<path fill="#F01485" d="M272.393,247.632c0,2.988-1.754,1.472-4.052,1.284c-2.117-0.172-4.051,0.233-4.051,0.233
		c0-2.989,1.814-5.203,4.051-5.818C270.579,242.716,272.393,244.642,272.393,247.632z"/>
	<path fill="#F01485" d="M247.787,246.195c0,0,2.113,6.236,0.897,9.893s6.429-2.048,7.595-0.133
		c1.166,1.915-2.583-5.403-0.771-9.894C256.337,244.008,247.787,246.195,247.787,246.195z"/>
	<path fill="#68C6DD" d="M258.324,258.223c2.7-1.116,8.845-7.601,8.95-8.278c0.105-0.678-0.431-1.6-0.913-2.092
		c-0.481-0.49-9.057,8.033-9.457,8.343S257.217,258.681,258.324,258.223z"/>
	<path fill="#64C1C7" d="M247.478,248.366c0.074,2.658,3.471,9.458,3.992,9.683c0.522,0.225,1.444-0.085,1.996-0.429
		c0.552-0.343-3.757-9.732-3.886-10.154C249.451,247.046,247.448,247.276,247.478,248.366z"/>
	<path fill="#F11385" d="M269.67,248.446c1.077,0.767,1.709,5.444,1.459,5.945c-0.251,0.501-0.992,1.198-1.502,1.574
		c-0.511,0.375-1.635-5.761-1.729-5.981C267.805,249.765,269.229,248.131,269.67,248.446z"/>
	<path fill="#F11385" d="M254.521,255.257c0.19,2.896,1.742,1.282,3.891,0.911c1.98-0.341,3.825-0.108,3.825-0.108
		c-0.191-2.897-2.038-4.895-4.181-5.305C255.913,250.343,254.331,252.359,254.521,255.257z"/>
	<path fill="#F01485" d="M279.897,248.448c0,0-2.125,6.007-1.107,9.586c1.017,3.579-5.871-2.137-7-0.304s2.535-5.188,0.991-9.591
		C272.074,246.126,279.897,248.448,279.897,248.448z"/>
	<path fill="#64C1C7" d="M274.894,251.718c0.222,1.877-1.373,5.67-2.919,6.783c-1.545,1.114-9.23-3.017-9.855-4.661
		c-0.625-1.646,2.403-7.443,3.257-7.569S274.684,249.939,274.894,251.718z"/>
	<path fill="#FEA621" stroke="#FEA621" stroke-width="2" d="M279.038,255.138c-7.885-2.8-22.509-2.709-30.485,0
		c0,0,2.489,14.314,6.669,15.32c4.18,1.005,16.227,0.148,16.836-0.146c0.608-0.293,4.746-4.719,6.477-14.064"/>
	<path fill="none" stroke="#FEA621" stroke-width="2" d="M260.874,231.6c-4.809,0.229-14.755,4.808-13.335,17.778
		c0.031,0.281,0.067,0.568,0.109,0.857c2.356,16.362,5.496,19.312,6.544,19.947c1.048,0.636,15.992,0.636,18.541,0
		c2.549-0.636,6.699-12.092,7.166-19.947s-1.394-17.771-9.591-18.521C266.705,231.384,263.277,231.484,260.874,231.6z"/>
	<g>
		<g>
			<path fill="#F01485" d="M282.618,237.036c3.264-3.8,7.064-7.055,11.441-9.511c0.827-0.464-1.126-0.264-1.481-0.064
				c-4.468,2.508-8.376,5.833-11.709,9.716C280.467,237.644,282.316,237.388,282.618,237.036L282.618,237.036z"/>
		</g>
	</g>
	<g>
		<g>
			<path fill="#4FA0CA" d="M283.804,253.465c2.213-0.012,4.425-0.159,6.62,0.196c0.899,0.145,1.986-1.116,0.689-1.326
				c-2.355-0.381-4.741-0.209-7.114-0.196C282.929,252.145,282.488,253.472,283.804,253.465L283.804,253.465z"/>
		</g>
	</g>
	<g>
		<g>
			<path fill="#4FA0CA" d="M279.684,269.522c1.166,1.61,1.888,3.427,2.467,5.316c0.286,0.933,2.215,0.407,1.932-0.518
				c-0.615-2.007-1.398-3.961-2.635-5.67C280.904,267.901,279.074,268.679,279.684,269.522L279.684,269.522z"/>
		</g>
	</g>
	<g>
		<g>
			<path fill="#F0047F" d="M248.599,268.403c-4.559,1.365-8.363,4.178-12.414,6.567c-1.125,0.664-0.098,1.751,0.867,1.182
				c3.879-2.289,7.548-5.075,11.913-6.382C250.147,269.417,249.791,268.046,248.599,268.403L248.599,268.403z"/>
		</g>
	</g>
	<g>
		<g>
			<path fill="#4FA0CA" d="M244.563,238.437c-3.655-3.646-8.928-5.417-13.897-6.381c-0.992-0.192-1.938,1.219-0.651,1.469
				c4.487,0.87,9.477,2.481,12.785,5.783C243.449,239.956,245.271,239.144,244.563,238.437L244.563,238.437z"/>
		</g>
	</g>
	<g>
		<g>
			<path fill="#F01485" d="M262.697,227.627c-0.727-1.855-0.213-3.769,0.383-5.586c0.156-0.476-1.737-0.226-1.913,0.311
				c-0.614,1.87-1.15,3.884-0.402,5.793C260.974,228.677,262.873,228.074,262.697,227.627L262.697,227.627z"/>
		</g>
	</g>
	<line fill="none" stroke="#CCCCCC" stroke-width="4" x1="200.017" y1="250.682" x2="235.722" y2="250.682"/>
	<circle fill="none" stroke="#FEA621" stroke-width="4" cx="42.439" cy="251.209" r="17.392"/>
	<path fill="#808080" d="M43.31,256.845h-1.268v-9.871c-0.098,0.101-0.241,0.216-0.429,0.347c-0.188,0.13-0.399,0.259-0.634,0.386
		c-0.234,0.128-0.482,0.247-0.742,0.358c-0.26,0.112-0.514,0.199-0.761,0.264v-1.323c0.278-0.079,0.573-0.187,0.885-0.322
		c0.312-0.136,0.618-0.287,0.919-0.454c0.302-0.167,0.586-0.343,0.854-0.525c0.268-0.184,0.5-0.363,0.696-0.538h0.479V256.845z"/>
	<path fill="#808080" d="M114.905,248.415c0-0.351-0.053-0.655-0.159-0.916c-0.105-0.26-0.25-0.477-0.433-0.649
		c-0.183-0.172-0.398-0.301-0.646-0.386c-0.247-0.085-0.515-0.128-0.804-0.128c-0.247,0-0.489,0.035-0.726,0.104
		c-0.237,0.069-0.468,0.165-0.692,0.287s-0.44,0.269-0.649,0.438c-0.209,0.17-0.403,0.358-0.583,0.565v-1.402
		c0.355-0.355,0.753-0.628,1.194-0.816s0.978-0.283,1.611-0.283c0.453,0,0.873,0.067,1.26,0.203
		c0.386,0.136,0.721,0.334,1.004,0.594c0.284,0.261,0.506,0.582,0.668,0.964c0.163,0.383,0.244,0.82,0.244,1.314
		c0,0.452-0.05,0.86-0.151,1.228c-0.1,0.366-0.252,0.712-0.456,1.035c-0.204,0.324-0.46,0.635-0.769,0.933
		c-0.309,0.297-0.672,0.6-1.09,0.908c-0.521,0.382-0.949,0.709-1.287,0.979c-0.337,0.271-0.605,0.524-0.804,0.761
		c-0.199,0.236-0.338,0.474-0.417,0.709c-0.08,0.237-0.12,0.509-0.12,0.817h5.518v1.171h-6.84v-0.565
		c0-0.489,0.052-0.919,0.155-1.291s0.273-0.725,0.51-1.06c0.237-0.335,0.547-0.669,0.932-1.004c0.384-0.335,0.854-0.712,1.41-1.131
		c0.402-0.298,0.738-0.582,1.009-0.853c0.271-0.271,0.488-0.542,0.653-0.813c0.165-0.271,0.282-0.546,0.352-0.825
		C114.871,249.025,114.905,248.729,114.905,248.415z"/>
	<path fill="#808080" d="M187.528,253.61c0,0.515-0.094,0.983-0.282,1.406c-0.188,0.422-0.454,0.783-0.796,1.083
		c-0.343,0.301-0.754,0.533-1.233,0.697c-0.479,0.165-1.007,0.247-1.584,0.247c-1.057,0-1.896-0.207-2.52-0.621v-1.402
		c0.747,0.605,1.602,0.908,2.566,0.908c0.386,0,0.735-0.051,1.047-0.151s0.58-0.247,0.804-0.438s0.397-0.422,0.518-0.693
		c0.121-0.271,0.182-0.576,0.182-0.916c0-1.492-1.031-2.238-3.091-2.238h-0.92v-1.107h0.874c1.824,0,2.736-0.701,2.736-2.104
		c0-1.296-0.696-1.944-2.087-1.944c-0.783,0-1.517,0.271-2.203,0.813v-1.267c0.706-0.436,1.546-0.653,2.52-0.653
		c0.464,0,0.884,0.066,1.26,0.199s0.698,0.318,0.966,0.558c0.268,0.239,0.476,0.526,0.622,0.86c0.147,0.335,0.221,0.704,0.221,1.107
		c0,1.504-0.737,2.47-2.21,2.9v0.032c0.376,0.042,0.724,0.137,1.043,0.282c0.319,0.146,0.595,0.336,0.827,0.569
		c0.232,0.234,0.414,0.509,0.545,0.825S187.528,253.228,187.528,253.61z"/>
	<path fill="#64C1C7" d="M139.053,418.23c0,0,5.507-13.815,2.14-21.711c-3.366-7.894,15.147,0.008,20.414-0.354
		c1.519-0.104-6.794,12.035-1.8,21.707C162.089,422.293,139.053,418.23,139.053,418.23z"/>
	<path fill="#64C1C7" d="M173.272,400.004c0.258,6.557-7.224,24.023-8.509,24.688c-1.287,0.663-3.677,0.1-5.132-0.625
		c-1.457-0.724,7.905-24.763,8.158-25.824C168.048,397.178,173.168,397.313,173.272,400.004z"/>
	<path fill="#64C1C7" d="M102.611,413.703c-0.248,4.666,4.434,13.658,8.538,16.064c4.106,2.408,22.913-9.416,24.226-13.599
		c1.308-4.182-7.343-17.796-9.531-17.924C123.655,398.118,102.846,409.281,102.611,413.703z"/>
	<path fill="#F01485" d="M117.18,406.59c-0.891,6.014,4.859,22.945,6.073,23.701c1.216,0.756,3.646,0.503,5.164,0
		c1.519-0.508-5.466-23.701-5.618-24.712C122.648,404.571,117.545,404.124,117.18,406.59z"/>
	<path fill="#F01485" d="M134.072,400.202c-3.261,2.966-6.035,17.118-5.414,18.423s2.617,2.86,4.013,3.629
		c1.397,0.764,5.889-18.003,6.2-18.709C139.185,402.836,135.408,398.984,134.072,400.202z"/>
	<path fill="#F01485" d="M155.66,410.449c0,7.17-4.207,3.531-9.719,3.082c-5.079-0.412-9.721,0.561-9.721,0.561
		c0-7.173,4.352-12.484,9.721-13.96C151.309,398.656,155.66,403.276,155.66,410.449z"/>
	<path fill="#F01485" d="M96.628,407.003c0,0,5.07,14.963,2.153,23.734s15.423-4.913,18.221-0.318
		c2.797,4.594-6.197-12.963-1.849-23.736C117.143,401.755,96.628,407.003,96.628,407.003z"/>
	<path fill="#68C6DD" d="M121.908,435.859c6.477-2.679,21.22-18.234,21.471-19.86c0.253-1.627-1.031-3.838-2.188-5.02
		c-1.155-1.177-21.729,19.273-22.688,20.016C117.541,431.738,119.252,436.959,121.908,435.859z"/>
	<path fill="#64C1C7" d="M95.887,412.211c0.179,6.379,3.754,23.414,9.578,23.231c1.361-0.043,3.463-0.204,4.787-1.029
		c1.324-0.822-9.014-23.35-9.322-24.361C100.619,409.044,95.814,409.597,95.887,412.211z"/>
	<path fill="#F11385" d="M149.129,412.404c2.586,1.839,4.102,13.063,3.5,14.264c-0.6,1.201-2.379,2.875-3.604,3.776
		c-1.223,0.901-3.922-13.821-4.147-14.35C144.655,415.567,148.071,411.647,149.129,412.404z"/>
	<path fill="#F11385" d="M112.784,428.743c0.46,6.949,4.181,3.077,9.335,2.187c4.751-0.817,9.177-0.26,9.177-0.26
		c-0.457-6.951-4.89-11.743-10.03-12.727C116.123,416.954,112.328,421.792,112.784,428.743z"/>
	<path fill="#F01485" d="M173.668,412.409c0,0,0,12.902-2.657,22.998c-2.272,8.633-14.085-5.127-16.796-0.729
		c-2.711,4.398,6.08-12.445,2.378-23.01C154.896,406.837,173.668,412.409,173.668,412.409z"/>
	<path fill="#64C1C7" d="M161.663,420.253c0.532,4.504-3.294,13.604-7.006,16.274c-3.706,2.674-22.146-7.238-23.645-11.184
		c-1.5-3.947,5.769-17.857,7.815-18.159C140.877,406.881,161.156,415.986,161.663,420.253z"/>
	<path fill="#FEA621" stroke="#FEA621" stroke-width="2" d="M171.606,428.459c-18.917-6.719-54.005-6.501-73.142,0
		c0,0,5.974,34.341,16.002,36.755c10.027,2.411,38.93,0.355,40.393-0.352c1.457-0.703,11.384-11.321,15.538-33.742"/>
	<path fill="none" stroke="#FEA621" stroke-width="2" d="M128.028,371.986c-11.538,0.551-35.402,11.533-31.995,42.653
		c0.074,0.675,0.161,1.363,0.262,2.057c5.65,39.256,13.184,46.331,15.697,47.856c2.517,1.525,38.368,1.525,44.483,0
		s16.072-29.01,17.192-47.856s-3.344-42.637-23.012-44.437C142.016,371.468,133.791,371.709,128.028,371.986z"/>
	<g>
		<g>
			<path fill="#F01485" d="M178.972,385.128c7.863-9.174,17.074-17.05,27.634-22.962c0.828-0.464-1.127-0.264-1.48-0.064
				c-10.654,5.964-19.971,13.907-27.904,23.167C176.82,385.736,178.67,385.48,178.972,385.128L178.972,385.128z"/>
		</g>
	</g>
	<g>
		<g>
			<path fill="#4FA0CA" d="M183.176,423.517c5.422-0.029,10.852-0.398,16.229,0.471c0.9,0.145,1.986-1.116,0.689-1.326
				c-5.539-0.895-11.139-0.501-16.723-0.471C182.301,422.196,181.86,423.523,183.176,423.517L183.176,423.517z"/>
		</g>
	</g>
	<g>
		<g>
			<path fill="#4FA0CA" d="M174.39,462.359c2.847,3.933,4.622,8.388,6.035,13.003c0.285,0.933,2.215,0.407,1.932-0.518
				c-1.449-4.736-3.284-9.322-6.203-13.356C175.609,460.737,173.779,461.516,174.39,462.359L174.39,462.359z"/>
		</g>
	</g>
	<g>
		<g>
			<path fill="#F0047F" d="M98.834,461.24c-10.805,3.193-19.84,9.982-29.434,15.627c-1.127,0.663-0.099,1.75,0.867,1.182
				c9.428-5.547,18.316-12.304,28.934-15.441C100.385,462.258,100.027,460.888,98.834,461.24L98.834,461.24z"/>
		</g>
	</g>
	<g>
		<g>
			<path fill="#4FA0CA" d="M87.659,388.998c-8.438-8.53-21.031-12.68-32.562-14.891c-0.992-0.19-1.939,1.222-0.652,1.469
				c11.042,2.116,23.362,6.115,31.45,14.293C86.541,390.521,88.364,389.711,87.659,388.998L87.659,388.998z"/>
		</g>
	</g>
	<g>
		<g>
			<path fill="#F01485" d="M131.051,362.817c-1.758-4.488-0.512-9.151,0.933-13.547c0.155-0.475-1.737-0.226-1.914,0.311
				c-1.464,4.455-2.732,9.205-0.95,13.754C129.327,363.867,131.227,363.265,131.051,362.817L131.051,362.817z"/>
		</g>
	</g>
	<circle fill="none" stroke="#FEA621" stroke-width="4" cx="116.183" cy="150.011" r="17.392"/>
	<line fill="none" stroke="#FEA621" stroke-width="4" x1="63.086" y1="148.693" x2="98.791" y2="148.693"/>
	<circle fill="none" stroke="#FEA621" stroke-width="4" cx="112.927" cy="251.209" r="17.392"/>
	<circle fill="none" stroke="#FEA621" stroke-width="4" cx="183.416" cy="251.209" r="17.392"/>
	<line fill="none" stroke="#FEA621" stroke-width="4" x1="59.831" y1="249.892" x2="95.536" y2="249.892"/>
	<line fill="none" stroke="#FEA621" stroke-width="4" x1="131.241" y1="250.945" x2="166.946" y2="250.945"/>
</g>
<g id="Layer_2">
</g>
</svg>
